# xmcd
#
# Track frame offsets:
#	150
#	11545
#	20504
#	26259
#	42371
#	49341
#	58825
#	67321
#	85128
#	97239
#	105639
#	118648
#	132448
#	142462
#	153289
#	170120
#	187229
#
# Disc length: 2640 seconds
#
# Revision: 1
# Processed by: cddbd v1.5.2PL0 Copyright (c) Steve Scherf et al.
# Submitted via: audiograbber 1.83.01
#
DISCID=020a4e11
DTITLE=Various Artist - Old Time Music at Clarence Ashley's
DYEAR=1961
DGENRE=Folk
TTITLE0=Clint Howard - Sally Ann
TTITLE1=Doc Watson - Old Ruben
TTITLE2=Fred Price - East Tennessee Blues
TTITLE3=Tom Ashley - Claude Allen
TTITLE4=Clint Howard - Richmond Blues
TTITLE5=Doc Watson - Skillet Good And Greasy
TTITLE6=Clint Howard - The Old Man At The Mill
TTITLE7=Eva Ashley Moore - The Haunted Woods
TTITLE8=Clint Howard - Footprints In The Snow
TTITLE9=Doc Watson - I'm Going Back To Jericho
TTITLE10=Clint Howard - Maggie Walker Blues
TTITLE11=Tom Ashley and Doc Watson - God's Gonna Ease My Troublin' Mind
TTITLE12=Doc Watson - Handsome Molly
TTITLE13=Stella Gilbert - The Louisiana Earthquake
TTITLE14=Tom Ashley - Honey Baby Blues
TTITLE15=Tommy Moore - True Lovers
TTITLE16=Clint Howard - Pretty Little Pink
EXTD=
EXTT0=
EXTT1=
EXTT2=
EXTT3=
EXTT4=
EXTT5=
EXTT6=
EXTT7=
EXTT8=
EXTT9=
EXTT10=
EXTT11=
EXTT12=
EXTT13=
EXTT14=
EXTT15=
EXTT16=
PLAYORDER=
